<?xml version="1.0" encoding="utf-8"?>
<!-- Generator: Adobe Illustrator 27.5.0, SVG Export Plug-In . SVG Version: 6.00 Build 0)  -->
<svg version="1.1" id="Capa_1" xmlns="http://www.w3.org/2000/svg" xmlns:xlink="http://www.w3.org/1999/xlink" x="0px" y="0px"
	 viewBox="0 0 2122 2122" style="enable-background:new 0 0 2122 2122;" xml:space="preserve">
<path style="fill:#87493B;" d="M1717.407,1023.683L1717.407,1023.683c-72.242,0-131.348-39.726-131.349-88.282
	c-0.002,48.556-59.109,88.282-131.349,88.282c-72.242,0-131.349-39.728-131.349-88.284c0,48.557-59.107,88.284-131.349,88.284
	c-72.241,0-131.347-39.726-131.349-88.282c-0.002,48.556-59.109,88.282-131.349,88.282c-72.24,0-131.347-39.726-131.349-88.282
	c-0.002,48.556-59.109,88.282-131.349,88.282c-72.242,0-131.349-39.728-131.349-88.284c0,48.557-59.107,88.284-131.348,88.284
	h-0.001c-8.839,0-17.477-0.604-25.839-1.736v765.439h142.116v-753.642h471.565v753.642h751.489v-765.44
	C1734.884,1023.079,1726.246,1023.683,1717.407,1023.683z"/>
<path style="fill:#6B3830;" d="M1717.406,971.299c-72.242,0-131.349-39.728-131.349-88.284c0,48.556-59.107,88.284-131.349,88.284
	c-72.243,0-131.349-39.728-131.349-88.284c0,48.556-59.107,88.284-131.349,88.284h0c-72.24,0-131.346-39.725-131.349-88.28
	c-0.003,48.555-59.11,88.28-131.349,88.28h0c-72.24,0-131.346-39.725-131.349-88.28c-0.003,48.555-59.109,88.28-131.349,88.28h0
	c-72.242,0-131.349-39.728-131.349-88.284c0,48.556-59.107,88.284-131.349,88.284h-0.001c-8.839,0-17.478-0.603-25.839-1.736v52.384
	c8.362,1.133,17,1.736,25.839,1.736h0.001c72.241,0,131.348-39.728,131.348-88.284c0,48.557,59.107,88.284,131.349,88.284
	c72.241,0,131.348-39.726,131.349-88.282c0.002,48.556,59.109,88.282,131.349,88.282c72.241,0,131.348-39.726,131.349-88.282
	c0.002,48.556,59.108,88.282,131.349,88.282c72.242,0,131.349-39.728,131.349-88.284c0,48.557,59.107,88.284,131.349,88.284
	c72.241,0,131.347-39.726,131.349-88.282c0.001,48.556,59.108,88.282,131.348,88.282h0.001c8.839,0,17.477-0.604,25.839-1.737
	v-52.383C1734.884,970.696,1726.246,971.299,1717.406,971.299L1717.406,971.299z"/>
<path style="fill:#352A2A;" d="M378.077,1787.385h-1.916c-8.456,0-15.31,6.854-15.31,15.31v158.868
	c0,8.455,6.854,15.309,15.31,15.309h1.916h142.116v-189.487H378.077z"/>
<path style="fill:#352A2A;" d="M991.757,1976.873h751.489h1.916c8.456,0,15.31-6.855,15.31-15.309v-158.868
	c0-8.455-6.854-15.31-15.31-15.31h-1.916H991.757V1976.873z"/>
<polygon style="fill:#FDE7D8;" points="707.526,144.445 530.959,144.445 272.567,786.118 535.265,786.118 "/>
<polygon style="fill:#A12648;" points="797.963,786.118 797.963,786.118 884.094,144.445 707.526,144.445 535.265,786.118 "/>
<polygon style="fill:#FDE7D8;" points="1060.661,786.118 1060.662,144.445 884.094,144.445 797.963,786.118 "/>
<polygon style="fill:#A12648;" points="1060.662,786.118 1323.36,786.118 1237.229,144.445 1060.662,144.445 1060.661,786.118 "/>
<polygon style="fill:#FDE7D8;" points="1586.058,786.118 1413.797,144.445 1237.229,144.445 1323.36,786.118 "/>
<polygon style="fill:#A12648;" points="1413.797,144.445 1586.058,786.118 1848.756,786.118 1590.364,144.445 "/>
<path style="fill:#DBD0C8;" d="M403.917,971.299c72.242,0,131.349-39.728,131.349-88.284v-96.897H272.567v96.897
	c0,42.615,45.532,78.422,105.51,86.548C386.438,970.696,395.077,971.299,403.917,971.299L403.917,971.299z"/>
<path style="fill:#7F213E;" d="M797.963,786.118H535.265v96.897c0,48.556,59.107,88.284,131.349,88.284h0
	c72.24,0,131.346-39.725,131.349-88.28c0-0.001,0-0.003,0-0.004V786.118z"/>
<path style="fill:#DBD0C8;" d="M1060.661,786.118H797.963l0,0v96.897c0,0.001,0,0.003,0,0.004
	c0.003,48.555,59.109,88.28,131.349,88.28h0c72.24,0,131.346-39.725,131.349-88.28c0-0.001,0-0.003,0-0.004V786.118z"/>
<path style="fill:#7F213E;" d="M1060.662,786.118L1060.662,786.118l0,96.897c0,0.001,0,0.003,0,0.004
	c0.003,48.555,59.109,88.28,131.349,88.28h0c72.242,0,131.349-39.728,131.349-88.284v-96.897H1060.662z"/>
<path style="fill:#DBD0C8;" d="M1323.36,883.015c0,48.556,59.106,88.284,131.349,88.284c72.242,0,131.349-39.728,131.349-88.284
	v-96.897H1323.36V883.015z"/>
<path style="fill:#7F213E;" d="M1586.058,883.015c0,48.556,59.107,88.284,131.349,88.284h0c8.839,0,17.478-0.603,25.839-1.736
	c59.978-8.127,105.51-43.933,105.51-86.548v-96.897h-262.698V883.015z"/>
<polygon style="fill:#352320;" points="520.192,1033.743 520.192,1787.385 520.192,1976.873 991.757,1976.873 991.757,1787.385 
	991.757,1033.743 "/>
<path style="fill:#3DABE2;" d="M798.591,1140.641c15.281-13.67,30.714-27.297,46.732-40.147H564.334v229.173
	c12.479-9.536,24.961-19.07,37.427-28.621C668.993,1249.534,735.441,1197.131,798.591,1140.641z"/>
<path style="fill:#3DABE2;" d="M904.688,1267.36c-15.622,13.112-30.298,27.234-45.132,41.219
	c-57.567,54.271-115.016,108.673-173.207,162.277h261.267v-238.593l-0.573,0.475C932.975,1244.341,918.656,1255.637,904.688,1267.36
	z"/>
<path style="fill:#55C4F1;" d="M845.323,1100.495c-16.018,12.85-31.451,26.477-46.732,40.147
	c-63.15,56.489-129.597,108.893-196.83,160.405c-12.466,9.551-24.948,19.084-37.427,28.621v141.189h122.014
	c58.191-53.604,115.64-108.006,173.207-162.277c14.834-13.986,29.51-28.107,45.132-41.219
	c13.968-11.723,28.287-23.018,42.354-34.621l0.573-0.475v-131.769v0L845.323,1100.495
	C845.323,1100.495,845.323,1100.495,845.323,1100.495z"/>
<path style="fill:#DBD0C8;" d="M642.929,1578.519h-66.751c-6.514,0-11.843,5.329-11.843,11.843c0,6.514,5.329,11.843,11.843,11.843
	h66.751c6.513,0,11.843-5.329,11.843-11.843C654.771,1583.849,649.442,1578.519,642.929,1578.519z"/>
<rect x="1045.588" y="1033.743" style="fill:#352320;" width="637.366" height="556.618"/>
<path style="fill:#3DABE2;" d="M1302.352,1271.004c42.089-37.28,83.716-75.102,124.16-114.167
	c30.614-29.57,60.547-59.864,89.434-91.126h-433.752v398.521c30.438-27.408,61.213-54.443,92.089-81.356
	C1217.011,1345.63,1259.92,1308.589,1302.352,1271.004z"/>
<path style="fill:#3DABE2;" d="M1531.305,1289.673c-20.824,18.74-40.875,38.395-61.181,57.693
	c-42.742,40.62-85.375,81.357-128.528,121.541c-32.474,30.24-65.244,60.173-98.558,89.486h403.31V1192
	c-18.315,17.225-37.837,33.265-57.135,49.057C1569.711,1257.016,1550.043,1272.81,1531.305,1289.673z"/>
<path style="fill:#55C4F1;" d="M1341.597,1468.907c43.153-40.185,85.786-80.922,128.528-121.541
	c20.306-19.298,40.356-38.953,61.181-57.693c18.738-16.863,38.406-32.657,57.909-48.616c19.299-15.792,38.821-31.832,57.135-49.057
	h0v-126.289h0h-130.403c-28.888,31.262-58.821,61.555-89.434,91.126c-40.443,39.066-82.07,76.887-124.16,114.167
	c-42.432,37.585-85.341,74.626-128.069,111.872c-30.876,26.913-61.651,53.948-92.089,81.356v94.161h160.844
	C1276.353,1529.08,1309.123,1499.147,1341.597,1468.907z"/>
</svg>
